<?xml version="1.0" encoding="UTF-8" standalone="no"?>
<!-- Created with Inkscape (http://www.inkscape.org/) -->

<svg
   width="239.26808mm"
   height="40.132435mm"
   viewBox="0 0 239.26808 40.132435"
   version="1.1"
   id="svg5"
   sodipodi:docname="logo.svg"
   inkscape:version="1.1.2 (b8e25be833, 2022-02-05)"
   xmlns:inkscape="http://www.inkscape.org/namespaces/inkscape"
   xmlns:sodipodi="http://sodipodi.sourceforge.net/DTD/sodipodi-0.dtd"
   xmlns="http://www.w3.org/2000/svg"
   xmlns:svg="http://www.w3.org/2000/svg">
  <sodipodi:namedview
     id="namedview7"
     pagecolor="#ffffff"
     bordercolor="#666666"
     borderopacity="1.0"
     inkscape:pageshadow="2"
     inkscape:pageopacity="0.0"
     inkscape:pagecheckerboard="0"
     inkscape:document-units="mm"
     showgrid="false"
     inkscape:zoom="0.52347032"
     inkscape:cx="195.80862"
     inkscape:cy="349.59002"
     inkscape:window-width="1920"
     inkscape:window-height="1017"
     inkscape:window-x="-8"
     inkscape:window-y="-8"
     inkscape:window-maximized="1"
     inkscape:current-layer="layer1" />
  <defs
     id="defs2" />
  <g
     inkscape:label="Layer 1"
     inkscape:groupmode="layer"
     id="layer1"
     transform="translate(0.56430663,-68.156563)">
    <path
       id="path51657"
       style="font-weight:bold;font-size:50.8px;line-height:1.25;font-family:Ubuntu;-inkscape-font-specification:'Ubuntu Bold';fill:#cb99c9;stroke-width:0.999999"
       d="m 736.49219,257.59961 -28.60938,4.60937 V 406.5918 h 28.60938 v -44.16016 c 3.2,2.56 6.39961,5.6962 9.59961,9.4082 3.328,3.712 6.4642,7.61688 9.4082,11.71289 2.944,3.968 5.69586,7.99971 8.25586,12.09571 2.688,3.968 5.05551,7.61536 7.10352,10.94336 h 32.83203 c -2.176,-4.224 -4.86446,-8.89563 -8.06446,-14.01563 -3.2,-5.12 -6.72054,-10.23936 -10.56054,-15.35937 -3.84,-5.12 -7.80635,-10.04916 -11.90235,-14.78516 -4.096,-4.864 -8.06429,-9.02252 -11.90429,-12.47852 7.68,-7.552 14.71914,-14.84867 21.11914,-21.88867 6.528,-7.168 13.18475,-14.65684 19.96875,-22.46484 h -33.98438 c -1.792,2.176 -3.96734,4.73764 -6.52734,7.68164 -2.432,2.944 -5.05705,6.0802 -7.87305,9.4082 -2.816,3.2 -5.76003,6.46302 -8.83203,9.79102 -2.944,3.328 -5.82267,6.52761 -8.63867,9.59961 z m -682.369143,15.9375 v 86.7832 c 0,8.448 -1.598828,14.46482 -4.798828,18.04883 -3.2,3.584 -8.44814,5.375 -15.744141,5.375 -4.992,0 -9.600219,-0.83209 -13.824219,-2.49609 -4.224,-1.664 -8.192296,-3.58376 -11.9042965,-5.75977 l -9.984375,23.23242 c 4.096,2.816 9.2807346,5.31228 15.5527345,7.48828 6.272,2.048 13.758891,3.07227 22.46289,3.07227 9.472002,0 17.279829,-1.21644 23.423829,-3.64844 6.272,-2.56 11.201158,-5.95178 14.785156,-10.17578 3.712,-4.352 6.271687,-9.40797 7.679687,-15.16797 1.536,-5.76001 2.304688,-11.90364 2.304688,-18.43164 v -88.32031 z m 323.136723,0 V 406.5918 h 29.95117 v -54.91211 h 52.60742 V 326.5293 h -52.60742 v -27.83985 h 59.13672 v -25.15234 z m -230.01563,29.375 c -3.328,0 -6.65637,0.19217 -9.98437,0.57617 -3.2,0.256 -6.2728,0.64034 -9.2168,1.15234 -2.944,0.384 -5.69586,0.89516 -8.25586,1.53516 -2.432,0.512 -4.48053,1.02511 -6.14453,1.53711 l 3.64844,23.03906 c 3.456,-1.28 7.55306,-2.2389 12.28906,-2.8789 4.736,-0.768 9.53444,-1.15235 14.39844,-1.15235 7.296,0 12.41732,1.47202 15.36132,4.41602 2.944,2.944 4.41602,6.84694 4.41602,11.71094 v 2.68945 c -1.792,-0.512 -4.15952,-0.89634 -7.10352,-1.15234 -2.816,-0.384 -6.08097,-0.57618 -9.79296,-0.57618 -5.504,0 -10.81555,0.57652 -15.93555,1.72852 -5.12,1.024 -9.66481,2.75159 -13.63281,5.18359 -3.968,2.432 -7.16761,5.69502 -9.59961,9.79102 -2.304,4.096 -3.45508,9.08856 -3.45508,14.97656 0,6.14401 1.02231,11.32874 3.07031,15.55274 2.048,4.224 4.99203,7.67918 8.83203,10.36718 3.84,2.56 8.38481,4.41636 13.63281,5.56836 5.376,1.152 11.32747,1.72852 17.85547,1.72852 10.368,0 19.2001,-0.63992 26.4961,-1.91992 7.296,-1.152 12.99189,-2.17627 17.08789,-3.07227 v -59.51953 c 0,-6.272 -0.70333,-11.96789 -2.11133,-17.08789 -1.408,-5.12 -3.84088,-9.47264 -7.29688,-13.05664 -3.328,-3.584 -7.80745,-6.33586 -13.43945,-8.25586 -5.632,-1.92 -12.67114,-2.88086 -21.11914,-2.88086 z m 113.4707,0 c -6.144,0 -12.15887,1.15303 -18.04687,3.45703 -5.76,2.304 -10.88133,5.69578 -15.36133,10.17578 -4.48,4.48 -8.12736,10.11249 -10.94336,16.89649 -2.688,6.656 -4.03125,14.46382 -4.03125,23.42382 0,7.424 1.02427,14.33438 3.07227,20.73438 2.176,6.40001 5.43901,11.96908 9.79101,16.70508 4.48,4.608 10.04713,8.25536 16.70313,10.94336 6.784,2.688 14.72059,4.0332 23.80859,4.0332 3.584,0 7.16795,-0.19217 10.75195,-0.57617 3.584,-0.384 6.91238,-0.89711 9.98438,-1.53711 3.2,-0.512 6.08062,-1.15192 8.64062,-1.91992 2.56,-0.768 4.60658,-1.53474 6.14258,-2.30274 l -3.83984,-23.23242 c -3.2,1.408 -7.35852,2.62444 -12.47852,3.64844 -4.99199,0.896 -10.11332,1.34375 -15.36132,1.34375 -8.192,0 -14.71999,-1.7276 -19.58399,-5.1836 -4.864,-3.45601 -7.61586,-8.12957 -8.25586,-14.01757 h 64.89649 c 0.128,-1.536 0.25676,-3.2636 0.38476,-5.1836 0.128,-2.048 0.19141,-3.90436 0.19141,-5.56836 0,-17.02399 -4.16047,-29.88779 -12.48047,-38.59179 -8.32,-8.832 -19.64838,-13.24805 -33.98438,-13.24805 z m 595.00782,0 c -6.144,0 -12.15888,1.15303 -18.04688,3.45703 -5.76,2.304 -10.87937,5.69578 -15.35937,10.17578 -4.48,4.48 -8.12932,10.11249 -10.94532,16.89649 -2.688,6.656 -4.03125,14.46382 -4.03125,23.42382 0,7.424 1.02427,14.33438 3.07227,20.73438 2.176,6.40001 5.43902,11.96908 9.79101,16.70508 4.48,4.608 10.04908,8.25536 16.70508,10.94336 6.784,2.688 14.71864,4.0332 23.80664,4.0332 3.584,0 7.16796,-0.19217 10.75196,-0.57617 3.584,-0.384 6.91237,-0.89711 9.98437,-1.53711 3.2,-0.512 6.08063,-1.15192 8.64063,-1.91992 2.56,-0.768 4.60853,-1.53474 6.14453,-2.30274 l -3.83985,-23.23242 c -3.2,1.408 -7.36046,2.62444 -12.48046,3.64844 -4.992,0.896 -10.11333,1.34375 -15.36133,1.34375 -8.192,0 -14.71999,-1.7276 -19.58399,-5.1836 -4.864,-3.45601 -7.61586,-8.12957 -8.25586,-14.01757 h 64.89649 c 0.128,-1.536 0.25676,-3.2636 0.38476,-5.1836 0.128,-2.048 0.19141,-3.90436 0.19141,-5.56836 0,-17.02399 -4.16047,-29.88779 -12.48047,-38.59179 -8.32,-8.832 -19.64837,-13.24805 -33.98437,-13.24805 z m -217.91993,0.38477 c -8.448,0 -16.5114,0.63992 -24.1914,1.91992 -7.68,1.152 -13.95241,2.43184 -18.81641,3.83984 v 97.53516 h 28.60742 v -77.95118 c 1.792,-0.256 3.84053,-0.44817 6.14454,-0.57617 2.30399,-0.256 4.48129,-0.38476 6.52929,-0.38476 6.656,0 11.19886,1.92172 13.63086,5.76172 2.432,3.84 3.64844,10.36798 3.64844,19.58398 v 53.56641 h 28.60742 v -57.02344 c 0,-6.912 -0.70333,-13.18441 -2.11133,-18.81641 -1.408,-5.632 -3.77551,-10.49579 -7.10351,-14.59179 -3.328,-4.096 -7.87282,-7.23221 -13.63282,-9.40821 -5.632,-2.304 -12.7365,-3.45507 -21.3125,-3.45507 z m -157.05664,2.30273 v 56.25781 c 0,6.912 0.70529,13.2478 2.11329,19.00781 1.40799,5.76 3.77551,10.75061 7.10351,14.97461 3.328,4.096 7.80745,7.29757 13.43945,9.60157 5.75998,2.304 12.92791,3.45507 21.50391,3.45507 8.448,0 16.51336,-0.63992 24.19336,-1.91992 7.68,-1.152 13.95045,-2.43184 18.81445,-3.83984 v -97.53711 h -28.60742 v 77.95312 c -1.792,0.256 -3.84053,0.51158 -6.14453,0.76758 -2.304,0.128 -4.47934,0.19141 -6.52734,0.19141 -6.656,0 -11.19886,-2.04658 -13.63086,-6.14258 -2.432,-4.09601 -3.64844,-10.75275 -3.64844,-19.96875 V 305.59961 Z M 261.09961,326.5293 c 3.328,0 6.07986,0.57456 8.25586,1.72656 2.304,1.152 4.16036,2.62402 5.56836,4.41602 1.536,1.792 2.62367,3.84053 3.26367,6.14453 0.768,2.304 1.21575,4.67151 1.34375,7.10351 h -37.82422 c 0.384,-2.432 0.96052,-4.79951 1.72852,-7.10351 0.896,-2.432 2.11243,-4.54394 3.64843,-6.33594 1.536,-1.792 3.45577,-3.20061 5.75977,-4.22461 2.304,-1.152 5.05586,-1.72656 8.25586,-1.72656 z m 595.00781,0 c 3.328,0 6.07986,0.57456 8.25586,1.72656 2.304,1.152 4.16036,2.62402 5.56836,4.41602 1.536,1.792 2.62367,3.84053 3.26367,6.14453 0.768,2.304 1.21575,4.67151 1.34375,7.10351 h -37.82422 c 0.384,-2.432 0.96052,-4.79951 1.72852,-7.10351 0.896,-2.432 2.11244,-4.54394 3.64844,-6.33594 1.536,-1.792 3.45576,-3.20061 5.75976,-4.22461 2.304,-1.152 5.05586,-1.72656 8.25586,-1.72656 z m -703.87109,36.47851 c 1.92,0 4.03194,0.12877 6.33594,0.38477 2.304,0.256 4.03159,0.51158 5.18359,0.76758 v 21.69726 c -1.536,0.256 -3.58453,0.44622 -6.14453,0.57422 -2.56,0.128 -5.24845,0.19336 -8.06445,0.19336 -5.24801,0 -9.40652,-0.83209 -12.47852,-2.49609 -2.944,-1.792 -4.41602,-4.9282 -4.41602,-9.40821 0,-2.304 0.51116,-4.22376 1.53516,-5.75976 1.024,-1.536 2.43261,-2.75244 4.22461,-3.64844 1.792,-0.896 3.83858,-1.47252 6.14258,-1.72852 2.432,-0.384 4.99364,-0.57617 7.68164,-0.57617 z"
       transform="scale(0.26458333)" />
  </g>
</svg>
